<svg xmlns="http://www.w3.org/2000/svg" viewBox="0 0 115.29 90.024">
  <path d="M109.601 40.639l-19.139-5.255L103.7 16.782a3.299 3.299 0 00-.116-3.987c-.639-.803-2.741-2.618-3.254-3.254-.917-1.153-2.486-1.55-3.868-.975L69.231 20.114 62.274 5.012c-.463-1.007-1.461-1.493-2.508-1.634l-.746-1.62c-1.078-2.344-4.926-2.344-6.005 0L44.27 20.737 15.573 8.565a3.31 3.31 0 00-3.868.975 3.303 3.303 0 00-.116 3.987l14.644 20.578-23.802 6.534A3.303 3.303 0 000 43.825c0 1.488 4.311 6.064 5.685 6.44l19.142 5.258-13.238 18.596a3.31 3.31 0 00.116 3.99c.644.803 2.743 2.617 3.254 3.254a3.289 3.289 0 003.868.968l27.229-11.542 6.959 15.1c.476 1.037 1.475 1.651 2.585 1.802l.669 1.452c.539 1.175 5.466 1.175 6.005 0l8.742-18.976 28.7 12.164a3.286 3.286 0 003.868-.968 3.303 3.303 0 00.116-3.99L89.056 56.802l23.806-6.537a3.305 3.305 0 002.428-3.186c0-1.488-4.311-6.063-5.689-6.44zM52.189 64.493c-.489-1.065-1.5-1.657-2.586-1.804l-.668-1.45a3.304 3.304 0 00-4.293-1.659l-12.91 5.471 5.885-8.267A3.303 3.303 0 0035.8 51.68l-.92-.253c-.017-.311.013-.624-.094-.926a3.303 3.303 0 00-2.24-2.076l-9.196-2.526 12.45-3.418a3.305 3.305 0 002.24-2.076 3.311 3.311 0 00-.423-3.028L27.008 22.47l20.887 8.858a3.306 3.306 0 004.294-1.663l6.206-13.469 4.706 10.215c.496 1.077 1.509 1.709 2.605 1.846l.649 1.408a3.31 3.31 0 004.294 1.663l12.91-5.475-5.885 8.271a3.313 3.313 0 00-.42 3.028 3.29 3.29 0 002.24 2.076l.918.252c.018.311-.011.625.095.926a3.29 3.29 0 002.24 2.076l9.194 2.524-12.455 3.42a3.305 3.305 0 00-1.814 5.104L88.28 68.432 67.393 59.58a3.298 3.298 0 00-4.294 1.659l-6.206 13.469-4.704-10.215z" fill="#73241f"/>
  <path fill="#efc13b" d="M97.754 11.61L80.367 36.04l28.361 7.785-28.361 7.785 17.387 24.43-31.651-13.421L56.017 84.51 45.932 62.619 14.281 76.04l17.387-24.43-28.361-7.785 28.361-7.785-17.387-24.43 31.651 13.421L56.017 3.14l10.086 21.891z"/>
</svg>
