<svg xmlns="http://www.w3.org/2000/svg" viewBox="0 0 99.819 73.169">
  <g transform="translate(-58.139 -38.894)">
    <path d="M108.052 112.063c-27.521 0-49.913-15.231-49.913-33.952 0-18.718 22.392-33.949 49.913-33.949 27.521 0 49.906 15.231 49.906 33.949 0 18.721-22.385 33.952-49.906 33.952zm0-59.966c-22.753 0-41.978 11.912-41.978 26.014 0 14.104 19.225 26.017 41.978 26.017 23.144 0 41.978-11.67 41.978-26.017-.001-14.101-19.228-26.014-41.978-26.014z" fill="#4a3952"/>
    <path d="M108.052 95.205c-18.298 0-32.099-7.348-32.099-17.094 0-9.746 13.801-17.094 32.099-17.094 18.301 0 32.099 7.348 32.099 17.094 0 9.746-13.798 17.094-32.099 17.094zm0-27.576c-14.589 0-25.488 5.533-25.488 10.482 0 4.949 10.899 10.482 25.488 10.482s25.488-5.533 25.488-10.482c0-4.949-10.9-10.482-25.488-10.482zM58.139 72.843v5.268l2.311 7.68 1.86-6.301.413-8.058zM152.599 83.312l5.359-5.201v-5.268l-5.772 2.205z" fill="#4a3952"/>
    <path fill="#4a3952" d="M139.273 71.225l-3.306 3.306 2.273 6.818 1.911-3.238v-5.268zM78.322 70.915l-2.369 1.928v5.268l2.369 5.098.517-4.546z"/>
    <path d="M108.052 106.795c-27.521 0-49.913-15.231-49.913-33.952 0-18.718 22.392-33.949 49.913-33.949 27.521 0 49.906 15.231 49.906 33.949 0 18.721-22.385 33.952-49.906 33.952zm0-59.966c-22.753 0-41.978 11.912-41.978 26.014 0 14.104 19.225 26.017 41.978 26.017 23.144 0 41.978-11.67 41.978-26.017-.001-14.102-19.228-26.014-41.978-26.014z" fill="#c7dcf3"/>
    <path d="M108.052 89.936c-18.298 0-32.099-7.348-32.099-17.094 0-9.746 13.801-17.094 32.099-17.094 18.301 0 32.099 7.348 32.099 17.094 0 9.746-13.798 17.094-32.099 17.094zm0-27.576c-14.589 0-25.488 5.533-25.488 10.482 0 4.949 10.899 10.482 25.488 10.482s25.488-5.533 25.488-10.482c0-4.949-10.9-10.482-25.488-10.482z" fill="#c7dcf3"/>
    <path fill="#4a3952" d="M96.79 76.563l6.51 1.565.206-5.353-6.716.068zM119.314 72.843l-4.341-.068-3.822 2.892v3.631l2.892-1.687 5.271-1.048z"/>
    <ellipse ry="3.393" rx="11.262" cy="76.563" cx="108.051" fill="#4a3952"/>
    <ellipse ry="3.393" rx="11.262" cy="72.844" cx="108.051" fill="#c7dcf3"/>
  </g>
</svg>
