<svg xmlns="http://www.w3.org/2000/svg" viewBox="0 0 99.823 74.099">
  <path fill="#525252" d="M42.888 19.257l-8.841 1.575v4.936L37 30.104l10.124-1.549z"/>
  <path d="M56.506 9.918c-3.402-.134-6.632 0-9.764.27l3.709 2.458c-9.06 0-16.404 5.875-16.404 13.122s7.344 13.121 16.404 13.121c9.059 0 16.403 5.875 16.403 13.121 0 7.247-7.344 13.121-16.403 13.121 0 0-4.023.335-8.143.646-4.325.326-8.269-1.876-10.134-2.25-5.733-1.152-13.633-2.881-21.544-11.818 2.182 2.76 4.621 5.179 6.517 7.176 5.888 6.198 17.975 10.227 17.975 10.227s10.847 4.029 31.612-.62S93.697 47.728 95.556 36.88c1.859-10.846-15.496-26.032-39.05-26.962z" fill="#525252"/>
  <path d="M56.506 4.982c-3.402-.134-6.632 0-9.764.27l3.709 2.458c-9.06 0-16.404 5.875-16.404 13.122s7.344 13.121 16.404 13.121c9.059 0 16.403 5.875 16.403 13.121S59.51 60.195 50.451 60.195c0 0-4.023.335-8.143.646-4.325.326-8.269-1.876-10.134-2.25-5.733-1.152-13.633-2.881-21.544-11.818 2.182 2.76 4.621 5.179 6.517 7.176 5.888 6.198 17.975 10.227 17.975 10.227s10.847 4.029 31.612-.62 26.963-20.764 28.822-31.612C97.415 21.098 80.06 5.912 56.506 4.982z" fill="#fff"/>
  <path d="M49.913 5.289c-22.92 0-42.286 11.912-42.286 26.014 0 1.048.14 2.079.346 3.1 2.585-12.702 20.724-22.915 41.94-22.915 21.216 0 39.358 10.213 41.943 22.915.207-1.02.346-2.051.346-3.1 0-14.102-19.369-26.014-42.289-26.014zM49.913 67.901C23.93 67.901 2.542 54.32.231 37.048A23.284 23.284 0 000 40.147c0 18.721 22.392 33.952 49.913 33.952 27.525 0 49.91-15.231 49.91-33.952 0-1.046-.094-2.077-.231-3.099-2.312 17.273-23.693 30.853-49.679 30.853z" fill="#525252"/>
  <path fill="#525252" d="M0 40.148l3.529 3.283.413-9.608L0 33.949zM97.227 34.547l-.103 8.161 1.239 2.272 1.46-4.832v-6.199z"/>
  <path d="M49.913 67.901C22.392 67.901 0 52.67 0 33.949 0 15.231 22.392 0 49.913 0c27.525 0 49.91 15.231 49.91 33.949 0 18.721-22.385 33.952-49.91 33.952zm0-59.965C27.16 7.936 7.935 19.848 7.935 33.95c0 14.104 19.225 26.017 41.978 26.017S91.894 48.055 91.894 33.95c0-14.102-19.228-26.014-41.981-26.014z" fill="#fff"/>
</svg>
